:SAMPLES-PER-SECOND 30
:FULLY-SPECIFIED
:DEGREES
67
root  34.77377103 36.58444262 -13.92142378 10.23258305 -5.177375793 3.298599005
lowerback  -8.396348953 -0.3549209535 -0.3980722725
upperback  -3.539580107 0.009717199951 -3.533159971
thorax  1.044739962 0.1525630057 -3.425410032
lowerneck  -11.61940002 -9.8331604 -7.199979782
upperneck  15.53569984 -13.5289011 9.452409744
head  7.85529995 -5.923570156 2.799119949
lclavicle  0 -4.497500157e-015 -2.743230041e-014
lhumerus  -48.00080109 31.3560009 62.45429993
lradius  0.001172923949 -6.507048965e-006 29.64999962
lwrist  3.192251654e-007 -3.790274832e-007 -28.90169907
lhand  -4.41407394e-031 -36.87279892 -10.85480022
lfingers  90 7.125020027 -90
lthumb  94.84152547 -25.68831899 101.0564351
rclavicle  0 -4.497500157e-015 -2.743230041e-014
rhumerus  -40.05929947 -21.2534008 -57.32870102
rradius  -5.16745672e-007 2.214343908e-008 91.10669708
rwrist  0.0003490542294 -0.002273720223 -171.8840027
rhand  -1.765919917e-031 1.152750015 -8.096119881
rfingers  -90 -7.125020027 -90
rthumb  -86.03717538 -7.825939609 -63.03483264
rfemur  -10.64393616 14.3312788 12.31461716
rtibia  0.5863443017 -1.366099954 16.87175751
rfoot  2.122252941 -22.15267372 -33.80832672
rtoes  4.170024923 19.57787589 -102.2752676
lfemur  -1.835180998 -15.10852432 -23.32118797
ltibia  8.450227737 -0.4738883078 4.016269684
lfoot  0.1154745072 -19.90222168 35.81428146
ltoes  -8.569668633 -18.13930878 -115.8286748
68
root  34.7708214 36.58145094 -13.91789594 10.2332449 -5.169696331 3.249542952
lowerback  -8.386778831 -0.3803749979 -0.4600197971
upperback  -3.551379919 -0.0155097004 -3.56208992
thorax  1.026000023 0.1417800039 -3.422739983
lowerneck  -11.53199959 -9.923910141 -7.282869816
upperneck  15.51819992 -13.65839863 9.551959991
head  7.859240055 -5.982490063 2.831069708
lclavicle  0 -4.497500157e-015 -2.743230041e-014
lhumerus  -47.96960068 31.29929924 62.45819855
lradius  0.001172923949 -6.507048965e-006 29.63924217
lwrist  3.192251654e-007 -3.790274832e-007 -28.86120033
lhand  -4.417841977e-031 -36.93790054 -10.8118
lfingers  90 7.125020027 -90
lthumb  94.86302855 -25.6436572 101.1221319
rclavicle  0 -4.497500157e-015 -2.743230041e-014
rhumerus  -39.42020035 -21.1779995 -56.82569885
rradius  -5.16745672e-007 2.214343908e-008 92.00309753
rwrist  0.0003490542294 -0.002273720223 -172.2599945
rhand  -1.76628836e-031 1.642639995 -8.176600456
rfingers  -90 -7.125020027 -90
rthumb  -85.97684608 -7.786003595 -62.5633107
rfemur  -10.65999031 14.32197475 12.38047981
rtibia  0.5890319943 -1.275741696 16.87098503
rfoot  2.1903162 -21.95726013 -33.6848793
rtoes  4.154842013 19.58098249 -102.2299608
lfemur  -1.827621341 -15.02689648 -23.26638222
ltibia  8.451644897 -0.4117162824 4.005541801
lfoot  0.1227379441 -20.04159927 35.7648468
ltoes  -8.573361558 -18.13760965 -115.8405372
69
root  34.77461207 36.57895186 -13.91238415 10.23404884 -5.30519104 3.30643034
lowerback  -8.353429794 -0.3365339935 -0.4312879741
upperback  -3.558490038 0.03751989827 -3.553070068
thorax  1.003170013 0.1671269983 -3.424590111
lowerneck  -11.37150002 -10.02830029 -7.389100075
upperneck  15.39400005 -13.79819965 9.639140129
head  7.816979885 -6.056670189 2.865129948
lclavicle  0 -4.497500157e-015 -2.743230041e-014
lhumerus  -47.92309952 31.27930069 62.49160004
lradius  0.001172923949 -6.507048965e-006 29.62540054
lwrist  3.192251654e-007 -3.790274832e-007 -28.82229996
lhand  -0 -36.95880127 -10.78439999
lfingers  90 7.125020027 -90
lthumb  94.8670527 -25.6161385 101.1420192
rclavicle  0 -4.497500157e-015 -2.743230041e-014
rhumerus  -38.77149963 -21.12610054 -56.27289963
rradius  -5.16745672e-007 2.214343908e-008 92.83769989
rwrist  0.0003490542294 -0.002273720223 -172.6920013
rhand  -1.76633735e-031 1.697149992 -8.20018959
rfingers  -90 -7.125020027 -90
rthumb  -85.97691577 -7.768683798 -62.51182734
rfemur  -10.75991058 14.38112354 12.31752872
rtibia  0.5421081781 -1.259165168 17.02184868
rfoot  2.167477369 -21.9113121 -33.59199905
rtoes  4.148917121 19.58219156 -102.2122824
lfemur  -1.828430533 -14.92051792 -23.34399414
ltibia  8.452622414 -0.4162411988 4.000753403
lfoot  0.1394184828 -20.0562191 35.81809998
ltoes  -8.571288084 -18.13856378 -115.8338766
70
root  34.77157833 36.58521757 -13.90825857 10.23291874 -5.348398685 3.321709633
lowerback  -8.32118988 -0.3161960542 -0.4335221648
upperback  -3.570499897 0.06467829645 -3.563760042
thorax  0.9744979739 0.1808049977 -3.43185997
lowerneck  -11.26500034 -10.13580036 -7.435389996
upperneck  15.33590031 -13.94760036 9.687210083
head  7.799809933 -6.130559921 2.873349905
lclavicle  0 -4.497500157e-015 -2.743230041e-014
lhumerus  -47.87129974 31.21019936 62.53490067
lradius  0.001172923949 -6.507048965e-006 29.62119865
lwrist  3.192251654e-007 -3.790274832e-007 -28.77549934
lhand  -0 -36.96649933 -10.76809978
lfingers  90 7.125020027 -90
lthumb  94.86715748 -25.5998135 101.148714
rclavicle  0 -4.497500157e-015 -2.743230041e-014
rhumerus  -38.03329849 -21.10099983 -55.69120026
rradius  -5.16745672e-007 2.214343908e-008 93.56479645
rwrist  0.0003490542294 -0.002273720223 -172.9649963
rhand  -1.766216462e-031 1.559190035 -8.21914959
rfingers  -90 -7.125020027 -90
rthumb  -86.01325473 -7.742751623 -62.64720439
rfemur  -10.67729568 14.41364574 12.27626991
rtibia  0.5758510828 -1.335546017 16.91435432
rfoot  2.148707867 -22.06900215 -33.6891861
rtoes  4.165094407 19.57888603 -102.2605539
lfemur  -1.815670609 -14.99008274 -23.37400436
ltibia  8.453416824 -0.4799917638 3.996890306
lfoot  0.1230301708 -19.91523933 35.84452057
ltoes  -8.578025173 -18.13546259 -115.8555191
71
root  34.76750532 36.58096734 -13.90456102 10.22584152 -5.372142315 3.323981285
lowerback  -8.326180458 -0.2762269676 -0.4159148932
upperback  -3.59375 0.1182809994 -3.569999933
thorax  0.9562320113 0.208107993 -3.443500042
lowerneck  -11.09080029 -10.26270008 -7.622019768
upperneck  15.26749992 -14.11439991 9.808839798
head  7.785270214 -6.21683979 2.927390099
lclavicle  0 -4.497500157e-015 -2.743230041e-014
lhumerus  -47.8423996 31.1651001 62.60549927
lradius  0.001172923949 -6.507048965e-006 29.59810066
lwrist  3.192251654e-007 -3.790274832e-007 -28.77560043
lhand  -4.417488415e-031 -36.93180084 -10.74450016
lfingers  90 7.125020027 -90
lthumb  94.84582697 -25.5779152 101.1094848
rclavicle  0 -4.497500157e-015 -2.743230041e-014
rhumerus  -37.35380173 -21.00930023 -55.10929871
rradius  -5.16745672e-007 2.214343908e-008 94.28469849
rwrist  0.0003490542294 -0.002273720223 -172.7220001
rhand  -1.766128616e-031 1.450719953 -8.131480217
rfingers  -90 -7.125020027 -90
rthumb  -85.99423847 -7.813600183 -62.74712562
rfemur  -10.739254 14.43148518 12.30060768
rtibia  0.5429748297 -1.287439346 17.01255035
rfoot  2.167062044 -21.973032 -33.58089447
rtoes  4.156651434 19.58061289 -102.2353599
lfemur  -1.787081242 -14.98695946 -23.3791523
ltibia  8.454047203 -0.4755181074 3.993888378
lfoot  0.1420297027 -19.94008064 35.89760971
ltoes  -8.570867318 -18.13875736 -115.8325251
72
root  34.76429136 36.58129474 -13.90275129 10.21639252 -5.40008688 3.325329542
lowerback  -8.332709312 -0.2832319438 -0.4480143785
upperback  -3.591249943 0.1134350002 -3.58762002
thorax  0.9621869922 0.2065329999 -3.444159985
lowerneck  -10.99440002 -10.35200024 -7.625249863
upperneck  15.1843996 -14.24579906 9.868909836
head  7.758259773 -6.279109955 2.935189962
lclavicle  0 -4.497500157e-015 -2.743230041e-014
lhumerus  -47.79449844 31.18289948 62.57910156
lradius  0.001172923949 -6.507048965e-006 29.59230042
lwrist  3.192251654e-007 -3.790274832e-007 -28.76840019
lhand  -4.416740957e-031 -36.91889954 -10.75030041
lfingers  90 7.125020027 -90
lthumb  94.84098415 -25.58407102 101.0961775
rclavicle  0 -4.497500157e-015 -2.743230041e-014
rhumerus  -36.56499863 -20.93910027 -54.66460037
rradius  -5.16745672e-007 2.214343908e-008 94.99700165
rwrist  0.0003490542294 -0.002273720223 -172.9329987
rhand  -1.766510511e-031 1.877159953 -8.203920364
rfingers  -90 -7.125020027 -90
rthumb  -85.94253579 -7.777292127 -62.3369826
rfemur  -10.75901318 14.43325806 12.31347656
rtibia  0.5290284157 -1.277207375 17.05143738
rfoot  2.178047419 -21.95493698 -33.5182457
rtoes  4.143133575 19.58337005 -102.1950268
lfemur  -1.769497514 -14.98165989 -23.38453484
ltibia  8.454535484 -0.4774975777 3.991681814
lfoot  0.149850592 -19.94392014 35.92904282
ltoes  -8.576470913 -18.13617831 -115.8505258
73
root  34.76182532 36.57867251 -13.898456 10.20710659 -5.414582729 3.333572149
lowerback  -8.327069283 -0.2952039242 -0.4723271132
upperback  -3.600689888 0.1015850008 -3.605449915
thorax  0.9486849904 0.2015749961 -3.450030088
lowerneck  -10.88809967 -10.43900013 -7.680630207
upperneck  15.12269974 -14.37570095 9.985360146
head  7.745019913 -6.33739996 2.969589949
lclavicle  0 -4.497500157e-015 -2.743230041e-014
lhumerus  -47.76319885 31.18280029 62.55170059
lradius  0.001172923949 -6.507048965e-006 29.58409882
lwrist  3.192251654e-007 -3.790274832e-007 -28.74300003
lhand  -4.416926341e-031 -36.92210007 -10.73649979
lfingers  90 7.125020027 -90
lthumb  94.83951067 -25.57037017 101.0982739
rclavicle  0 -4.497500157e-015 -2.743230041e-014
rhumerus  -35.77090073 -20.92449951 -54.17369843
rradius  -5.16745672e-007 2.214343908e-008 95.62049866
rwrist  0.0003490542294 -0.002273720223 -173.1329956
rhand  -1.767284139e-031 2.529230118 -8.186260223
rfingers  -90 -7.125020027 -90
rthumb  -85.80148454 -7.83644224 -61.70170521
rfemur  -10.72758579 14.43896198 12.30214119
rtibia  0.5385097861 -1.269404054 17.01987457
rfoot  2.195683479 -21.91921997 -33.51694107
rtoes  4.169918366 19.57789773 -102.2749496
lfemur  -1.759546161 -14.96965218 -23.39468384
ltibia  8.454898834 -0.4924025834 3.990205526
lfoot  0.140613541 -19.91696358 35.89307404
ltoes  -8.604960611 -18.1230334 -115.9420832
74
root  34.7614859 36.57717066 -13.89555743 10.20179081 -5.452925205 3.3419137
lowerback  -8.315380096 -0.2810260355 -0.4758761525
upperback  -3.607209921 0.121661 -3.620120049
thorax  0.9366430044 0.2119480073 -3.461469889
lowerneck  -10.80200005 -10.54730034 -7.774089813
upperneck  15.07409954 -14.52670097 10.08100033
head  7.743080139 -6.409530163 2.998919964
lclavicle  0 -4.497500157e-015 -2.743230041e-014
lhumerus  -47.73130035 31.17690086 62.55020142
lradius  0.001172923949 -6.507048965e-006 29.5904007
lwrist  3.192251654e-007 -3.790274832e-007 -28.76989937
lhand  -4.415889985e-031 -36.90420151 -10.68029976
lfingers  90 7.125020027 -90
lthumb  94.81915335 -25.51588605 101.0739958
rclavicle  0 -4.497500157e-015 -2.743230041e-014
rhumerus  -34.98479843 -21.0483017 -53.57460022
rradius  -5.16745672e-007 2.214343908e-008 96.01950073
rwrist  0.0003490542294 -0.002273720223 -173.5970001
rhand  -1.76701974e-031 2.327069998 -7.994709969
rfingers  -90 -7.125020027 -90
rthumb  -85.75183725 -7.991852792 -61.88580688
rfemur  -10.69983864 14.41091156 12.27905273
rtibia  0.5516056418 -1.299579859 16.98043633
rfoot  2.211307526 -21.96532059 -33.48231888
rtoes  4.163994598 19.57911119 -102.2572719
lfemur  -1.750956774 -14.99185181 -23.41269302
ltibia  8.455160141 -0.5149969459 3.989394188
lfoot  0.1326980889 -19.8707943 35.90926743
ltoes  -8.567530048 -18.14029234 -115.8218057
